<mxfile host="app.diagrams.net" modified="2022-09-02T03:46:11.622Z" agent="5.0 (Macintosh; Intel Mac OS X 10_15_7) AppleWebKit/537.36 (KHTML, like Gecko) Chrome/104.0.0.0 Safari/537.36" etag="RvOu1908l4WhPSnCsvQT" version="20.2.8" type="github">
  <diagram id="tZtuiYwcsACQZU0OgqWh" name="หน้า-1">
    <mxGraphModel dx="1188" dy="593" grid="1" gridSize="10" guides="1" tooltips="1" connect="1" arrows="1" fold="1" page="1" pageScale="1" pageWidth="827" pageHeight="1169" math="0" shadow="0">
      <root>
        <mxCell id="0" />
        <mxCell id="1" parent="0" />
        <mxCell id="KyLAvnzzJZKWlOcafogT-1" value="ใช่" style="text;html=1;align=center;verticalAlign=middle;resizable=0;points=[];autosize=1;strokeColor=none;fillColor=none;" vertex="1" parent="1">
          <mxGeometry x="361" y="1725.0017823431426" width="40" height="30" as="geometry" />
        </mxCell>
        <mxCell id="KyLAvnzzJZKWlOcafogT-2" value="" style="group" vertex="1" connectable="0" parent="1">
          <mxGeometry x="40" y="40" width="730" height="1854.7917823431426" as="geometry" />
        </mxCell>
        <mxCell id="KyLAvnzzJZKWlOcafogT-3" style="edgeStyle=orthogonalEdgeStyle;rounded=0;orthogonalLoop=1;jettySize=auto;html=1;endArrow=classic;endFill=1;" edge="1" parent="KyLAvnzzJZKWlOcafogT-2" source="KyLAvnzzJZKWlOcafogT-4" target="KyLAvnzzJZKWlOcafogT-9">
          <mxGeometry relative="1" as="geometry">
            <mxPoint x="411.25" y="1277.3348139922264" as="targetPoint" />
          </mxGeometry>
        </mxCell>
        <mxCell id="KyLAvnzzJZKWlOcafogT-4" value="มีข้อมูล" style="rhombus;whiteSpace=wrap;html=1;rounded=1;" vertex="1" parent="KyLAvnzzJZKWlOcafogT-2">
          <mxGeometry x="371.25" y="1127.1960022209887" width="80" height="92.3931149361466" as="geometry" />
        </mxCell>
        <mxCell id="KyLAvnzzJZKWlOcafogT-5" value="ไม่ใช่" style="text;html=1;align=center;verticalAlign=middle;resizable=0;points=[];autosize=1;strokeColor=none;fillColor=none;" vertex="1" parent="KyLAvnzzJZKWlOcafogT-2">
          <mxGeometry x="435" y="1127.1960022209887" width="50" height="30" as="geometry" />
        </mxCell>
        <mxCell id="KyLAvnzzJZKWlOcafogT-6" value="ใช่" style="text;html=1;align=center;verticalAlign=middle;resizable=0;points=[];autosize=1;strokeColor=none;fillColor=none;" vertex="1" parent="KyLAvnzzJZKWlOcafogT-2">
          <mxGeometry x="364" y="1219.5891171571352" width="40" height="30" as="geometry" />
        </mxCell>
        <mxCell id="KyLAvnzzJZKWlOcafogT-7" style="edgeStyle=orthogonalEdgeStyle;rounded=0;orthogonalLoop=1;jettySize=auto;html=1;endArrow=none;endFill=0;" edge="1" parent="KyLAvnzzJZKWlOcafogT-2" source="KyLAvnzzJZKWlOcafogT-65">
          <mxGeometry relative="1" as="geometry">
            <mxPoint x="730" y="757.6235424764021" as="targetPoint" />
          </mxGeometry>
        </mxCell>
        <mxCell id="KyLAvnzzJZKWlOcafogT-8" style="edgeStyle=orthogonalEdgeStyle;rounded=0;orthogonalLoop=1;jettySize=auto;html=1;endArrow=none;endFill=0;" edge="1" parent="KyLAvnzzJZKWlOcafogT-2" source="KyLAvnzzJZKWlOcafogT-63">
          <mxGeometry relative="1" as="geometry">
            <mxPoint x="730" y="831.5380344253193" as="targetPoint" />
          </mxGeometry>
        </mxCell>
        <mxCell id="KyLAvnzzJZKWlOcafogT-112" value="" style="edgeStyle=orthogonalEdgeStyle;rounded=0;orthogonalLoop=1;jettySize=auto;html=1;" edge="1" parent="KyLAvnzzJZKWlOcafogT-2" source="KyLAvnzzJZKWlOcafogT-9" target="KyLAvnzzJZKWlOcafogT-71">
          <mxGeometry relative="1" as="geometry" />
        </mxCell>
        <mxCell id="KyLAvnzzJZKWlOcafogT-9" value="ปรับปรุงข้อมูลประเภทเอกสาร" style="rounded=1;whiteSpace=wrap;html=1;" vertex="1" parent="KyLAvnzzJZKWlOcafogT-2">
          <mxGeometry x="349.63" y="1280" width="123.25" height="32.67" as="geometry" />
        </mxCell>
        <mxCell id="KyLAvnzzJZKWlOcafogT-113" value="" style="edgeStyle=orthogonalEdgeStyle;rounded=0;orthogonalLoop=1;jettySize=auto;html=1;entryX=0.478;entryY=0.027;entryDx=0;entryDy=0;entryPerimeter=0;" edge="1" parent="KyLAvnzzJZKWlOcafogT-2" source="KyLAvnzzJZKWlOcafogT-10" target="KyLAvnzzJZKWlOcafogT-11">
          <mxGeometry relative="1" as="geometry">
            <mxPoint x="410" y="1730" as="targetPoint" />
            <Array as="points">
              <mxPoint x="410" y="1714" />
            </Array>
          </mxGeometry>
        </mxCell>
        <mxCell id="KyLAvnzzJZKWlOcafogT-10" value="บันทึกข้อมูล" style="whiteSpace=wrap;html=1;rounded=1;" vertex="1" parent="KyLAvnzzJZKWlOcafogT-2">
          <mxGeometry x="349.63" y="1624.7989950027763" width="120" height="69.29483620210993" as="geometry" />
        </mxCell>
        <mxCell id="KyLAvnzzJZKWlOcafogT-11" value="สำเร็จ" style="rhombus;whiteSpace=wrap;html=1;rounded=1;" vertex="1" parent="KyLAvnzzJZKWlOcafogT-2">
          <mxGeometry x="371.25" y="1719.6668517490284" width="80" height="92.3931149361466" as="geometry" />
        </mxCell>
        <mxCell id="KyLAvnzzJZKWlOcafogT-13" value="ค้นหาข้อมูลใน Table Request Temp ที่ verifyToken ตรงกัน" style="rounded=1;whiteSpace=wrap;html=1;" vertex="1" parent="KyLAvnzzJZKWlOcafogT-2">
          <mxGeometry x="130" y="121.26596335369243" width="120" height="69.29483620210993" as="geometry" />
        </mxCell>
        <mxCell id="KyLAvnzzJZKWlOcafogT-14" value="มีข้อมูล" style="rhombus;whiteSpace=wrap;html=1;rounded=1;" vertex="1" parent="KyLAvnzzJZKWlOcafogT-2">
          <mxGeometry x="150" y="236.75735702387567" width="80" height="92.3931149361466" as="geometry" />
        </mxCell>
        <mxCell id="KyLAvnzzJZKWlOcafogT-15" value="" style="edgeStyle=orthogonalEdgeStyle;rounded=0;orthogonalLoop=1;jettySize=auto;html=1;" edge="1" parent="KyLAvnzzJZKWlOcafogT-2" source="KyLAvnzzJZKWlOcafogT-13" target="KyLAvnzzJZKWlOcafogT-14">
          <mxGeometry relative="1" as="geometry" />
        </mxCell>
        <mxCell id="KyLAvnzzJZKWlOcafogT-16" style="edgeStyle=orthogonalEdgeStyle;rounded=0;orthogonalLoop=1;jettySize=auto;html=1;endArrow=classic;endFill=1;entryX=0;entryY=0.5;entryDx=0;entryDy=0;" edge="1" parent="KyLAvnzzJZKWlOcafogT-2" source="KyLAvnzzJZKWlOcafogT-17" target="KyLAvnzzJZKWlOcafogT-45">
          <mxGeometry relative="1" as="geometry">
            <mxPoint x="530" y="150.0017823431427" as="targetPoint" />
            <Array as="points">
              <mxPoint x="531" y="283" />
              <mxPoint x="531" y="93" />
            </Array>
          </mxGeometry>
        </mxCell>
        <mxCell id="KyLAvnzzJZKWlOcafogT-17" value="ส่ง Error Code 3&amp;nbsp;&amp;nbsp;&lt;br&gt;รหัสยืนยันตัวตนไม่ถูกต้อง" style="whiteSpace=wrap;html=1;rounded=1;" vertex="1" parent="KyLAvnzzJZKWlOcafogT-2">
          <mxGeometry x="320" y="262.7429205996669" width="160" height="40.42198778456413" as="geometry" />
        </mxCell>
        <mxCell id="KyLAvnzzJZKWlOcafogT-18" value="" style="edgeStyle=orthogonalEdgeStyle;rounded=0;orthogonalLoop=1;jettySize=auto;html=1;" edge="1" parent="KyLAvnzzJZKWlOcafogT-2" source="KyLAvnzzJZKWlOcafogT-14" target="KyLAvnzzJZKWlOcafogT-17">
          <mxGeometry relative="1" as="geometry" />
        </mxCell>
        <mxCell id="KyLAvnzzJZKWlOcafogT-19" value="ตรวจสอบไฟลแนบ" style="whiteSpace=wrap;html=1;rounded=1;" vertex="1" parent="KyLAvnzzJZKWlOcafogT-2">
          <mxGeometry x="130" y="375.34702942809554" width="120" height="69.29483620210993" as="geometry" />
        </mxCell>
        <mxCell id="KyLAvnzzJZKWlOcafogT-20" value="" style="edgeStyle=orthogonalEdgeStyle;rounded=0;orthogonalLoop=1;jettySize=auto;html=1;" edge="1" parent="KyLAvnzzJZKWlOcafogT-2" source="KyLAvnzzJZKWlOcafogT-14" target="KyLAvnzzJZKWlOcafogT-19">
          <mxGeometry relative="1" as="geometry" />
        </mxCell>
        <mxCell id="KyLAvnzzJZKWlOcafogT-21" value="ใช่" style="text;html=1;align=center;verticalAlign=middle;resizable=0;points=[];autosize=1;strokeColor=none;fillColor=none;" vertex="1" parent="KyLAvnzzJZKWlOcafogT-2">
          <mxGeometry x="150" y="323.3759022765131" width="40" height="30" as="geometry" />
        </mxCell>
        <mxCell id="KyLAvnzzJZKWlOcafogT-22" value="ไม่ใช่" style="text;html=1;align=center;verticalAlign=middle;resizable=0;points=[];autosize=1;strokeColor=none;fillColor=none;" vertex="1" parent="KyLAvnzzJZKWlOcafogT-2">
          <mxGeometry x="215" y="242.5319267073848" width="50" height="30" as="geometry" />
        </mxCell>
        <mxCell id="KyLAvnzzJZKWlOcafogT-23" style="edgeStyle=orthogonalEdgeStyle;rounded=0;orthogonalLoop=1;jettySize=auto;html=1;entryX=0;entryY=0.5;entryDx=0;entryDy=0;" edge="1" parent="KyLAvnzzJZKWlOcafogT-2" source="KyLAvnzzJZKWlOcafogT-24">
          <mxGeometry relative="1" as="geometry">
            <mxPoint x="320" y="537.034980566352" as="targetPoint" />
          </mxGeometry>
        </mxCell>
        <mxCell id="KyLAvnzzJZKWlOcafogT-24" value="มีข้อมูล" style="rhombus;whiteSpace=wrap;html=1;rounded=1;" vertex="1" parent="KyLAvnzzJZKWlOcafogT-2">
          <mxGeometry x="150" y="490.8384230982788" width="80" height="92.3931149361466" as="geometry" />
        </mxCell>
        <mxCell id="KyLAvnzzJZKWlOcafogT-25" value="" style="edgeStyle=orthogonalEdgeStyle;rounded=0;orthogonalLoop=1;jettySize=auto;html=1;" edge="1" parent="KyLAvnzzJZKWlOcafogT-2" source="KyLAvnzzJZKWlOcafogT-19" target="KyLAvnzzJZKWlOcafogT-24">
          <mxGeometry relative="1" as="geometry" />
        </mxCell>
        <mxCell id="KyLAvnzzJZKWlOcafogT-26" value="ไม่ใช่" style="text;html=1;align=center;verticalAlign=middle;resizable=0;points=[];autosize=1;strokeColor=none;fillColor=none;" vertex="1" parent="KyLAvnzzJZKWlOcafogT-2">
          <mxGeometry x="215" y="490.8384230982788" width="50" height="30" as="geometry" />
        </mxCell>
        <mxCell id="KyLAvnzzJZKWlOcafogT-27" value="ใช่" style="text;html=1;align=center;verticalAlign=middle;resizable=0;points=[];autosize=1;strokeColor=none;fillColor=none;" vertex="1" parent="KyLAvnzzJZKWlOcafogT-2">
          <mxGeometry x="140" y="565.9078289838978" width="40" height="30" as="geometry" />
        </mxCell>
        <mxCell id="KyLAvnzzJZKWlOcafogT-28" value="อัปโหลดไฟลแนบ" style="whiteSpace=wrap;html=1;rounded=1;" vertex="1" parent="KyLAvnzzJZKWlOcafogT-2">
          <mxGeometry x="130" y="629.4280955024986" width="120" height="69.29483620210993" as="geometry" />
        </mxCell>
        <mxCell id="KyLAvnzzJZKWlOcafogT-29" value="" style="edgeStyle=orthogonalEdgeStyle;rounded=0;orthogonalLoop=1;jettySize=auto;html=1;" edge="1" parent="KyLAvnzzJZKWlOcafogT-2" source="KyLAvnzzJZKWlOcafogT-24" target="KyLAvnzzJZKWlOcafogT-28">
          <mxGeometry relative="1" as="geometry" />
        </mxCell>
        <mxCell id="KyLAvnzzJZKWlOcafogT-30" value="สำเร็จ" style="rhombus;whiteSpace=wrap;html=1;rounded=1;" vertex="1" parent="KyLAvnzzJZKWlOcafogT-2">
          <mxGeometry x="150" y="744.9194891726819" width="80" height="92.3931149361466" as="geometry" />
        </mxCell>
        <mxCell id="KyLAvnzzJZKWlOcafogT-31" value="" style="edgeStyle=orthogonalEdgeStyle;rounded=0;orthogonalLoop=1;jettySize=auto;html=1;" edge="1" parent="KyLAvnzzJZKWlOcafogT-2" source="KyLAvnzzJZKWlOcafogT-28" target="KyLAvnzzJZKWlOcafogT-30">
          <mxGeometry relative="1" as="geometry" />
        </mxCell>
        <mxCell id="KyLAvnzzJZKWlOcafogT-32" value="ตรวจสอบว่ามีไฟลอีกหรือไม่" style="whiteSpace=wrap;html=1;rounded=1;" vertex="1" parent="KyLAvnzzJZKWlOcafogT-2">
          <mxGeometry x="130" y="871.9600222098835" width="120" height="69.29483620210993" as="geometry" />
        </mxCell>
        <mxCell id="KyLAvnzzJZKWlOcafogT-33" value="" style="edgeStyle=orthogonalEdgeStyle;rounded=0;orthogonalLoop=1;jettySize=auto;html=1;" edge="1" parent="KyLAvnzzJZKWlOcafogT-2" source="KyLAvnzzJZKWlOcafogT-30" target="KyLAvnzzJZKWlOcafogT-32">
          <mxGeometry relative="1" as="geometry" />
        </mxCell>
        <mxCell id="KyLAvnzzJZKWlOcafogT-34" style="edgeStyle=orthogonalEdgeStyle;rounded=0;orthogonalLoop=1;jettySize=auto;html=1;endArrow=classic;endFill=1;entryX=1;entryY=0.5;entryDx=0;entryDy=0;" edge="1" parent="KyLAvnzzJZKWlOcafogT-2" source="KyLAvnzzJZKWlOcafogT-35" target="KyLAvnzzJZKWlOcafogT-28">
          <mxGeometry relative="1" as="geometry">
            <mxPoint x="275" y="538.1898945030539" as="targetPoint" />
            <Array as="points">
              <mxPoint x="260" y="1022.0988339811216" />
              <mxPoint x="260" y="664.0755136035538" />
            </Array>
          </mxGeometry>
        </mxCell>
        <mxCell id="KyLAvnzzJZKWlOcafogT-35" value="มีช้อมูล" style="rhombus;whiteSpace=wrap;html=1;rounded=1;" vertex="1" parent="KyLAvnzzJZKWlOcafogT-2">
          <mxGeometry x="150" y="975.9022765130484" width="80" height="92.3931149361466" as="geometry" />
        </mxCell>
        <mxCell id="KyLAvnzzJZKWlOcafogT-36" value="" style="edgeStyle=orthogonalEdgeStyle;rounded=0;orthogonalLoop=1;jettySize=auto;html=1;" edge="1" parent="KyLAvnzzJZKWlOcafogT-2" source="KyLAvnzzJZKWlOcafogT-32" target="KyLAvnzzJZKWlOcafogT-35">
          <mxGeometry relative="1" as="geometry" />
        </mxCell>
        <mxCell id="KyLAvnzzJZKWlOcafogT-37" value="ไม่ใช่" style="text;html=1;align=center;verticalAlign=middle;resizable=0;points=[];autosize=1;strokeColor=none;fillColor=none;" vertex="1" parent="KyLAvnzzJZKWlOcafogT-2">
          <mxGeometry x="190" y="1056.7462520821769" width="50" height="30" as="geometry" />
        </mxCell>
        <mxCell id="KyLAvnzzJZKWlOcafogT-38" value="ตรวจสอบเวลาการเปิดรับเอกสาร&amp;nbsp;" style="rounded=1;whiteSpace=wrap;html=1;" vertex="1" parent="KyLAvnzzJZKWlOcafogT-2">
          <mxGeometry x="320" y="502.38756246529715" width="120" height="69.29483620210993" as="geometry" />
        </mxCell>
        <mxCell id="KyLAvnzzJZKWlOcafogT-39" value="เปิดรับเอกสาร" style="rhombus;whiteSpace=wrap;html=1;rounded=1;" vertex="1" parent="KyLAvnzzJZKWlOcafogT-2">
          <mxGeometry x="480" y="490.8384230982788" width="80" height="92.3931149361466" as="geometry" />
        </mxCell>
        <mxCell id="KyLAvnzzJZKWlOcafogT-40" value="" style="edgeStyle=orthogonalEdgeStyle;rounded=0;orthogonalLoop=1;jettySize=auto;html=1;" edge="1" parent="KyLAvnzzJZKWlOcafogT-2" source="KyLAvnzzJZKWlOcafogT-38" target="KyLAvnzzJZKWlOcafogT-39">
          <mxGeometry relative="1" as="geometry" />
        </mxCell>
        <mxCell id="KyLAvnzzJZKWlOcafogT-41" style="edgeStyle=orthogonalEdgeStyle;rounded=0;orthogonalLoop=1;jettySize=auto;html=1;endArrow=none;endFill=0;" edge="1" parent="KyLAvnzzJZKWlOcafogT-2" source="KyLAvnzzJZKWlOcafogT-42">
          <mxGeometry relative="1" as="geometry">
            <mxPoint x="730" y="1023.2537479178233" as="targetPoint" />
            <Array as="points">
              <mxPoint x="60" y="1854.7917823431426" />
              <mxPoint x="730" y="1854.7917823431426" />
            </Array>
          </mxGeometry>
        </mxCell>
        <mxCell id="KyLAvnzzJZKWlOcafogT-42" value="ส่ง Error Code 1&amp;nbsp;&amp;nbsp;&lt;br&gt;ไม่สามารถอัพโหลดเอกสารแนบได้" style="rounded=1;whiteSpace=wrap;html=1;" vertex="1" parent="KyLAvnzzJZKWlOcafogT-2">
          <mxGeometry y="756.4686285397003" width="120" height="69.29483620210993" as="geometry" />
        </mxCell>
        <mxCell id="KyLAvnzzJZKWlOcafogT-43" style="edgeStyle=orthogonalEdgeStyle;rounded=0;orthogonalLoop=1;jettySize=auto;html=1;" edge="1" parent="KyLAvnzzJZKWlOcafogT-2" source="KyLAvnzzJZKWlOcafogT-30" target="KyLAvnzzJZKWlOcafogT-42">
          <mxGeometry relative="1" as="geometry">
            <mxPoint x="280" y="791.1160466407553" as="targetPoint" />
          </mxGeometry>
        </mxCell>
        <mxCell id="KyLAvnzzJZKWlOcafogT-44" value="ใช่" style="text;html=1;align=center;verticalAlign=middle;resizable=0;points=[];autosize=1;strokeColor=none;fillColor=none;" vertex="1" parent="KyLAvnzzJZKWlOcafogT-2">
          <mxGeometry x="215" y="975.9022765130484" width="40" height="30" as="geometry" />
        </mxCell>
        <mxCell id="KyLAvnzzJZKWlOcafogT-45" value="" style="ellipse;whiteSpace=wrap;html=1;aspect=fixed;" vertex="1" parent="KyLAvnzzJZKWlOcafogT-2">
          <mxGeometry x="552" y="80" width="25" height="25" as="geometry" />
        </mxCell>
        <mxCell id="KyLAvnzzJZKWlOcafogT-46" style="edgeStyle=orthogonalEdgeStyle;rounded=0;orthogonalLoop=1;jettySize=auto;html=1;entryX=0.5;entryY=1;entryDx=0;entryDy=0;endArrow=classic;endFill=1;" edge="1" parent="KyLAvnzzJZKWlOcafogT-2" source="KyLAvnzzJZKWlOcafogT-47" target="KyLAvnzzJZKWlOcafogT-45">
          <mxGeometry relative="1" as="geometry">
            <Array as="points">
              <mxPoint x="520" y="319" />
              <mxPoint x="580" y="319" />
              <mxPoint x="580" y="140" />
              <mxPoint x="565" y="140" />
            </Array>
          </mxGeometry>
        </mxCell>
        <mxCell id="KyLAvnzzJZKWlOcafogT-47" value="ส่ง Error Code&amp;nbsp; 4&amp;nbsp;&lt;br&gt;การยื่นเอกสารคำร้อง&lt;br&gt;ยังไม่เปิด/ปิดอยู่" style="whiteSpace=wrap;html=1;rounded=1;" vertex="1" parent="KyLAvnzzJZKWlOcafogT-2">
          <mxGeometry x="440" y="358.023320377568" width="160" height="57.74569683509162" as="geometry" />
        </mxCell>
        <mxCell id="KyLAvnzzJZKWlOcafogT-48" style="edgeStyle=orthogonalEdgeStyle;rounded=0;orthogonalLoop=1;jettySize=auto;html=1;entryX=0.5;entryY=1;entryDx=0;entryDy=0;" edge="1" parent="KyLAvnzzJZKWlOcafogT-2" source="KyLAvnzzJZKWlOcafogT-39" target="KyLAvnzzJZKWlOcafogT-47">
          <mxGeometry relative="1" as="geometry">
            <mxPoint x="520" y="444.64186563020553" as="targetPoint" />
          </mxGeometry>
        </mxCell>
        <mxCell id="KyLAvnzzJZKWlOcafogT-49" value="ไม่ใช่" style="text;html=1;align=center;verticalAlign=middle;resizable=0;points=[];autosize=1;strokeColor=none;fillColor=none;" vertex="1" parent="KyLAvnzzJZKWlOcafogT-2">
          <mxGeometry x="520" y="456.1910049972238" width="50" height="30" as="geometry" />
        </mxCell>
        <mxCell id="KyLAvnzzJZKWlOcafogT-50" value="ใช่" style="text;html=1;align=center;verticalAlign=middle;resizable=0;points=[];autosize=1;strokeColor=none;fillColor=none;" vertex="1" parent="KyLAvnzzJZKWlOcafogT-2">
          <mxGeometry x="530" y="565.9078289838978" width="40" height="30" as="geometry" />
        </mxCell>
        <mxCell id="KyLAvnzzJZKWlOcafogT-51" value="สิ้นสุด" style="ellipse;whiteSpace=wrap;html=1;" vertex="1" parent="KyLAvnzzJZKWlOcafogT-2">
          <mxGeometry x="651" y="71.53" width="59" height="41.94" as="geometry" />
        </mxCell>
        <mxCell id="KyLAvnzzJZKWlOcafogT-52" value="" style="edgeStyle=orthogonalEdgeStyle;rounded=0;orthogonalLoop=1;jettySize=auto;html=1;endArrow=classic;endFill=1;" edge="1" parent="KyLAvnzzJZKWlOcafogT-2" source="KyLAvnzzJZKWlOcafogT-45" target="KyLAvnzzJZKWlOcafogT-51">
          <mxGeometry relative="1" as="geometry" />
        </mxCell>
        <mxCell id="KyLAvnzzJZKWlOcafogT-53" value="ใช่" style="text;html=1;align=center;verticalAlign=middle;resizable=0;points=[];autosize=1;strokeColor=none;fillColor=none;" vertex="1" parent="KyLAvnzzJZKWlOcafogT-2">
          <mxGeometry x="190" y="819.988895058301" width="40" height="30" as="geometry" />
        </mxCell>
        <mxCell id="KyLAvnzzJZKWlOcafogT-54" value="ไม่ใช่" style="text;html=1;align=center;verticalAlign=middle;resizable=0;points=[];autosize=1;strokeColor=none;fillColor=none;" vertex="1" parent="KyLAvnzzJZKWlOcafogT-2">
          <mxGeometry x="115" y="750.6940588561911" width="50" height="30" as="geometry" />
        </mxCell>
        <mxCell id="KyLAvnzzJZKWlOcafogT-55" value="ตรวจสอบข้อมูล&lt;br&gt;ตรวจสอบความเป็นผู้ถือหุ้น โดยตรวจสอบจาก Table Shareholder&amp;nbsp;" style="whiteSpace=wrap;html=1;rounded=1;" vertex="1" parent="KyLAvnzzJZKWlOcafogT-2">
          <mxGeometry x="320" y="646.7518045530261" width="195" height="98.16768461965576" as="geometry" />
        </mxCell>
        <mxCell id="KyLAvnzzJZKWlOcafogT-56" style="edgeStyle=orthogonalEdgeStyle;rounded=0;orthogonalLoop=1;jettySize=auto;html=1;entryX=0.5;entryY=0;entryDx=0;entryDy=0;" edge="1" parent="KyLAvnzzJZKWlOcafogT-2" source="KyLAvnzzJZKWlOcafogT-39" target="KyLAvnzzJZKWlOcafogT-55">
          <mxGeometry relative="1" as="geometry">
            <mxPoint x="410" y="642.1321488062188" as="targetPoint" />
          </mxGeometry>
        </mxCell>
        <mxCell id="KyLAvnzzJZKWlOcafogT-57" value="เป็นผู้ถือหุ้น" style="rhombus;whiteSpace=wrap;html=1;rounded=1;" vertex="1" parent="KyLAvnzzJZKWlOcafogT-2">
          <mxGeometry x="377.5" y="785.3414769572461" width="80" height="92.3931149361466" as="geometry" />
        </mxCell>
        <mxCell id="KyLAvnzzJZKWlOcafogT-58" value="" style="edgeStyle=orthogonalEdgeStyle;rounded=0;orthogonalLoop=1;jettySize=auto;html=1;" edge="1" parent="KyLAvnzzJZKWlOcafogT-2" source="KyLAvnzzJZKWlOcafogT-55" target="KyLAvnzzJZKWlOcafogT-57">
          <mxGeometry relative="1" as="geometry" />
        </mxCell>
        <mxCell id="KyLAvnzzJZKWlOcafogT-59" value="ใช่" style="text;html=1;align=center;verticalAlign=middle;resizable=0;points=[];autosize=1;strokeColor=none;fillColor=none;" vertex="1" parent="KyLAvnzzJZKWlOcafogT-2">
          <mxGeometry x="364" y="877.7345918933926" width="40" height="30" as="geometry" />
        </mxCell>
        <mxCell id="KyLAvnzzJZKWlOcafogT-60" value="ไม่ใช่" style="text;html=1;align=center;verticalAlign=middle;resizable=0;points=[];autosize=1;strokeColor=none;fillColor=none;" vertex="1" parent="KyLAvnzzJZKWlOcafogT-2">
          <mxGeometry x="457.5" y="791.1160466407553" width="50" height="30" as="geometry" />
        </mxCell>
        <mxCell id="KyLAvnzzJZKWlOcafogT-61" value="ตรวจสอบข้อมูล&lt;br&gt;ตรวจสอบความซ้ำซ้อนของเอกสาร ว่าเคยมีการยื่นมาหรือไม่ โดยมีเงื่อนไขคือ เลขทะเบียนผู้ถือหุ้น เเละ เบอรโทร และ อีเมล์ ต้องมีใน Table Request&amp;nbsp;" style="whiteSpace=wrap;html=1;rounded=1;" vertex="1" parent="KyLAvnzzJZKWlOcafogT-2">
          <mxGeometry x="298.75" y="935.4802887284842" width="237.5" height="115.49139367018324" as="geometry" />
        </mxCell>
        <mxCell id="KyLAvnzzJZKWlOcafogT-62" value="" style="edgeStyle=orthogonalEdgeStyle;rounded=0;orthogonalLoop=1;jettySize=auto;html=1;exitX=0.5;exitY=1;exitDx=0;exitDy=0;" edge="1" parent="KyLAvnzzJZKWlOcafogT-2" source="KyLAvnzzJZKWlOcafogT-61" target="KyLAvnzzJZKWlOcafogT-4">
          <mxGeometry relative="1" as="geometry">
            <mxPoint x="411" y="1104.097723486952" as="sourcePoint" />
            <Array as="points">
              <mxPoint x="411" y="1050.9716823986678" />
            </Array>
          </mxGeometry>
        </mxCell>
        <mxCell id="KyLAvnzzJZKWlOcafogT-63" value="ส่ง Error Code 6 ไม่พบข้อมูลผู้ถือหุ้นนี้ในระบบ" style="whiteSpace=wrap;html=1;rounded=1;" vertex="1" parent="KyLAvnzzJZKWlOcafogT-2">
          <mxGeometry x="570" y="796.8906163242644" width="120" height="69.29483620210993" as="geometry" />
        </mxCell>
        <mxCell id="KyLAvnzzJZKWlOcafogT-64" style="edgeStyle=orthogonalEdgeStyle;rounded=0;orthogonalLoop=1;jettySize=auto;html=1;entryX=0;entryY=0.5;entryDx=0;entryDy=0;exitX=1;exitY=0.5;exitDx=0;exitDy=0;" edge="1" parent="KyLAvnzzJZKWlOcafogT-2" source="KyLAvnzzJZKWlOcafogT-57" target="KyLAvnzzJZKWlOcafogT-63">
          <mxGeometry relative="1" as="geometry">
            <Array as="points">
              <mxPoint x="520" y="831.5380344253193" />
              <mxPoint x="520" y="831.5380344253193" />
            </Array>
          </mxGeometry>
        </mxCell>
        <mxCell id="KyLAvnzzJZKWlOcafogT-65" value="ส่ง Error Code 5 ไม่พบข้อมูลเอกสารคำร้องที่ตรงกับข้อมูลผู้ถือหุ้น" style="whiteSpace=wrap;html=1;rounded=1;" vertex="1" parent="KyLAvnzzJZKWlOcafogT-2">
          <mxGeometry x="570" y="896.2132148806221" width="120" height="69.29483620210993" as="geometry" />
        </mxCell>
        <mxCell id="KyLAvnzzJZKWlOcafogT-66" style="edgeStyle=orthogonalEdgeStyle;rounded=0;orthogonalLoop=1;jettySize=auto;html=1;endArrow=classic;endFill=1;entryX=1;entryY=1;entryDx=0;entryDy=0;" edge="1" parent="KyLAvnzzJZKWlOcafogT-2" target="KyLAvnzzJZKWlOcafogT-45">
          <mxGeometry relative="1" as="geometry">
            <mxPoint x="710" y="191.71571349250416" as="targetPoint" />
            <mxPoint x="730" y="757.6235424764021" as="sourcePoint" />
            <Array as="points">
              <mxPoint x="640" y="758" />
              <mxPoint x="640" y="140" />
              <mxPoint x="612" y="140" />
              <mxPoint x="612" y="110" />
              <mxPoint x="573" y="110" />
            </Array>
          </mxGeometry>
        </mxCell>
        <mxCell id="KyLAvnzzJZKWlOcafogT-67" style="edgeStyle=orthogonalEdgeStyle;rounded=0;orthogonalLoop=1;jettySize=auto;html=1;endArrow=none;endFill=0;" edge="1" parent="KyLAvnzzJZKWlOcafogT-2" source="KyLAvnzzJZKWlOcafogT-68">
          <mxGeometry relative="1" as="geometry">
            <mxPoint x="730" y="919.3114936146586" as="targetPoint" />
          </mxGeometry>
        </mxCell>
        <mxCell id="KyLAvnzzJZKWlOcafogT-68" value="ส่ง Error Code&amp;nbsp; 2&amp;nbsp;&lt;br&gt;ไม่สามารถบันทึกข้อมูลได้" style="rounded=1;whiteSpace=wrap;html=1;" vertex="1" parent="KyLAvnzzJZKWlOcafogT-2">
          <mxGeometry x="570" y="999.0005552470851" width="120" height="70.44975013881177" as="geometry" />
        </mxCell>
        <mxCell id="KyLAvnzzJZKWlOcafogT-69" value="ไม่ใช่" style="text;html=1;align=center;verticalAlign=middle;resizable=0;points=[];autosize=1;strokeColor=none;fillColor=none;" vertex="1" parent="KyLAvnzzJZKWlOcafogT-2">
          <mxGeometry x="440" y="1731.215991116047" width="50" height="30" as="geometry" />
        </mxCell>
        <mxCell id="KyLAvnzzJZKWlOcafogT-70" value="ใช่" style="text;html=1;align=center;verticalAlign=middle;resizable=0;points=[];autosize=1;strokeColor=none;fillColor=none;" vertex="1" parent="KyLAvnzzJZKWlOcafogT-2">
          <mxGeometry x="431.25" y="1777.41254858412" width="40" height="30" as="geometry" />
        </mxCell>
        <mxCell id="KyLAvnzzJZKWlOcafogT-71" value="ปรับปรุงข้อมูลกรรมการที่รับมอบฉันทะ" style="whiteSpace=wrap;html=1;rounded=1;" vertex="1" parent="KyLAvnzzJZKWlOcafogT-2">
          <mxGeometry x="351.25" y="1381.277068295392" width="120" height="69.29483620210993" as="geometry" />
        </mxCell>
        <mxCell id="KyLAvnzzJZKWlOcafogT-72" value="" style="edgeStyle=orthogonalEdgeStyle;rounded=0;orthogonalLoop=1;jettySize=auto;html=1;endArrow=classic;endFill=1;" edge="1" parent="KyLAvnzzJZKWlOcafogT-2" source="KyLAvnzzJZKWlOcafogT-57" target="KyLAvnzzJZKWlOcafogT-61">
          <mxGeometry relative="1" as="geometry" />
        </mxCell>
        <mxCell id="KyLAvnzzJZKWlOcafogT-73" value="" style="edgeStyle=orthogonalEdgeStyle;rounded=0;orthogonalLoop=1;jettySize=auto;html=1;entryX=0;entryY=0.5;entryDx=0;entryDy=0;" edge="1" parent="KyLAvnzzJZKWlOcafogT-2" source="KyLAvnzzJZKWlOcafogT-4" target="KyLAvnzzJZKWlOcafogT-65">
          <mxGeometry relative="1" as="geometry">
            <Array as="points">
              <mxPoint x="550" y="1173" />
              <mxPoint x="550" y="931" />
            </Array>
          </mxGeometry>
        </mxCell>
        <mxCell id="KyLAvnzzJZKWlOcafogT-74" value="ปรับปรุงข้อมูลโหวตใน Table RequestProxyVote" style="whiteSpace=wrap;html=1;rounded=1;" vertex="1" parent="KyLAvnzzJZKWlOcafogT-2">
          <mxGeometry x="191.25" y="1471.924247221672" width="120" height="69.29483620210993" as="geometry" />
        </mxCell>
        <mxCell id="KyLAvnzzJZKWlOcafogT-75" style="edgeStyle=orthogonalEdgeStyle;rounded=0;orthogonalLoop=1;jettySize=auto;html=1;endArrow=none;endFill=0;" edge="1" parent="KyLAvnzzJZKWlOcafogT-2" source="KyLAvnzzJZKWlOcafogT-76">
          <mxGeometry relative="1" as="geometry">
            <mxPoint x="730" y="1820.1443642420882" as="targetPoint" />
          </mxGeometry>
        </mxCell>
        <mxCell id="KyLAvnzzJZKWlOcafogT-76" value="ส่งกลับข้อมูลผู้ถือหุ้นและข้อมูลวาระที่มีการลงคะแนนเสียง" style="rounded=1;whiteSpace=wrap;html=1;" vertex="1" parent="KyLAvnzzJZKWlOcafogT-2">
          <mxGeometry x="507.5" y="1797.0460855080514" width="140" height="46.1965574680733" as="geometry" />
        </mxCell>
        <mxCell id="KyLAvnzzJZKWlOcafogT-77" style="edgeStyle=orthogonalEdgeStyle;rounded=0;orthogonalLoop=1;jettySize=auto;html=1;entryX=0.5;entryY=1;entryDx=0;entryDy=0;endArrow=classic;endFill=1;" edge="1" parent="KyLAvnzzJZKWlOcafogT-2" source="KyLAvnzzJZKWlOcafogT-11" target="KyLAvnzzJZKWlOcafogT-68">
          <mxGeometry relative="1" as="geometry" />
        </mxCell>
        <mxCell id="KyLAvnzzJZKWlOcafogT-79" style="edgeStyle=orthogonalEdgeStyle;rounded=0;orthogonalLoop=1;jettySize=auto;html=1;entryX=0;entryY=0.5;entryDx=0;entryDy=0;endArrow=classic;endFill=1;" edge="1" parent="KyLAvnzzJZKWlOcafogT-2" source="KyLAvnzzJZKWlOcafogT-11" target="KyLAvnzzJZKWlOcafogT-76">
          <mxGeometry relative="1" as="geometry">
            <Array as="points">
              <mxPoint x="411" y="1820.1443642420882" />
            </Array>
          </mxGeometry>
        </mxCell>
        <mxCell id="KyLAvnzzJZKWlOcafogT-80" value="อัปโหลดไฟล์ลายเซนต์" style="whiteSpace=wrap;html=1;rounded=1;" vertex="1" parent="KyLAvnzzJZKWlOcafogT-2">
          <mxGeometry x="130" y="1127.1960022209887" width="120" height="69.29483620210993" as="geometry" />
        </mxCell>
        <mxCell id="KyLAvnzzJZKWlOcafogT-81" value="" style="edgeStyle=orthogonalEdgeStyle;rounded=0;orthogonalLoop=1;jettySize=auto;html=1;" edge="1" parent="KyLAvnzzJZKWlOcafogT-2" source="KyLAvnzzJZKWlOcafogT-35" target="KyLAvnzzJZKWlOcafogT-80">
          <mxGeometry relative="1" as="geometry" />
        </mxCell>
        <mxCell id="KyLAvnzzJZKWlOcafogT-82" value="สำเร็จ" style="rhombus;whiteSpace=wrap;html=1;rounded=1;" vertex="1" parent="KyLAvnzzJZKWlOcafogT-2">
          <mxGeometry x="150" y="1229.9833425874517" width="80" height="92.3931149361466" as="geometry" />
        </mxCell>
        <mxCell id="KyLAvnzzJZKWlOcafogT-83" value="" style="edgeStyle=orthogonalEdgeStyle;rounded=0;orthogonalLoop=1;jettySize=auto;html=1;" edge="1" parent="KyLAvnzzJZKWlOcafogT-2" source="KyLAvnzzJZKWlOcafogT-80" target="KyLAvnzzJZKWlOcafogT-82">
          <mxGeometry relative="1" as="geometry" />
        </mxCell>
        <mxCell id="KyLAvnzzJZKWlOcafogT-84" value="ใช่" style="text;html=1;align=center;verticalAlign=middle;resizable=0;points=[];autosize=1;strokeColor=none;fillColor=none;" vertex="1" parent="KyLAvnzzJZKWlOcafogT-2">
          <mxGeometry x="225" y="1242.6873958911715" width="40" height="30" as="geometry" />
        </mxCell>
        <mxCell id="KyLAvnzzJZKWlOcafogT-85" value="ไม่ใช่" style="text;html=1;align=center;verticalAlign=middle;resizable=0;points=[];autosize=1;strokeColor=none;fillColor=none;" vertex="1" parent="KyLAvnzzJZKWlOcafogT-2">
          <mxGeometry x="135" y="1322.3764575235978" width="50" height="30" as="geometry" />
        </mxCell>
        <mxCell id="KyLAvnzzJZKWlOcafogT-86" style="edgeStyle=orthogonalEdgeStyle;rounded=0;orthogonalLoop=1;jettySize=auto;html=1;entryX=0;entryY=0.5;entryDx=0;entryDy=0;" edge="1" parent="KyLAvnzzJZKWlOcafogT-2" source="KyLAvnzzJZKWlOcafogT-82" target="KyLAvnzzJZKWlOcafogT-55">
          <mxGeometry relative="1" as="geometry">
            <mxPoint x="292" y="1068.295391449195" as="targetPoint" />
            <Array as="points">
              <mxPoint x="282" y="1276.1799000555247" />
              <mxPoint x="282" y="696.413103831205" />
            </Array>
          </mxGeometry>
        </mxCell>
        <mxCell id="KyLAvnzzJZKWlOcafogT-87" style="edgeStyle=orthogonalEdgeStyle;rounded=0;orthogonalLoop=1;jettySize=auto;html=1;endArrow=none;endFill=0;" edge="1" parent="KyLAvnzzJZKWlOcafogT-2" source="KyLAvnzzJZKWlOcafogT-88">
          <mxGeometry relative="1" as="geometry">
            <mxPoint x="132" y="1853.636868406441" as="targetPoint" />
            <Array as="points">
              <mxPoint x="131" y="1765.863409217102" />
            </Array>
          </mxGeometry>
        </mxCell>
        <mxCell id="KyLAvnzzJZKWlOcafogT-88" value="ส่ง Error code 8 ไม่สามารถอัพโหลดไฟล์ลายเซนได้" style="whiteSpace=wrap;html=1;rounded=1;" vertex="1" parent="KyLAvnzzJZKWlOcafogT-2">
          <mxGeometry x="71.25" y="1391.671293725708" width="120" height="69.29483620210993" as="geometry" />
        </mxCell>
        <mxCell id="KyLAvnzzJZKWlOcafogT-89" value="" style="edgeStyle=orthogonalEdgeStyle;rounded=0;orthogonalLoop=1;jettySize=auto;html=1;" edge="1" parent="KyLAvnzzJZKWlOcafogT-2" source="KyLAvnzzJZKWlOcafogT-82" target="KyLAvnzzJZKWlOcafogT-88">
          <mxGeometry relative="1" as="geometry">
            <Array as="points">
              <mxPoint x="190" y="1357.023875624653" />
              <mxPoint x="130" y="1357.023875624653" />
            </Array>
          </mxGeometry>
        </mxCell>
        <mxCell id="KyLAvnzzJZKWlOcafogT-90" value="ตรวจประเภทเอกสาร โดยเช็คจากข้อมูลการโหวต (agendaVote)" style="whiteSpace=wrap;html=1;rounded=1;" vertex="1" parent="KyLAvnzzJZKWlOcafogT-2">
          <mxGeometry x="490" y="1468.0567095332299" width="120" height="62.71356783919599" as="geometry" />
        </mxCell>
        <mxCell id="KyLAvnzzJZKWlOcafogT-91" value="" style="edgeStyle=orthogonalEdgeStyle;rounded=0;orthogonalLoop=1;jettySize=auto;html=1;endArrow=none;endFill=0;" edge="1" parent="KyLAvnzzJZKWlOcafogT-2" source="KyLAvnzzJZKWlOcafogT-71" target="KyLAvnzzJZKWlOcafogT-90">
          <mxGeometry relative="1" as="geometry" />
        </mxCell>
        <mxCell id="KyLAvnzzJZKWlOcafogT-92" style="edgeStyle=orthogonalEdgeStyle;rounded=0;orthogonalLoop=1;jettySize=auto;html=1;entryX=0.5;entryY=0;entryDx=0;entryDy=0;endArrow=classic;endFill=1;" edge="1" parent="KyLAvnzzJZKWlOcafogT-2" source="KyLAvnzzJZKWlOcafogT-94" target="KyLAvnzzJZKWlOcafogT-10">
          <mxGeometry relative="1" as="geometry" />
        </mxCell>
        <mxCell id="KyLAvnzzJZKWlOcafogT-93" value="" style="edgeStyle=orthogonalEdgeStyle;rounded=0;orthogonalLoop=1;jettySize=auto;html=1;endArrow=classic;endFill=1;" edge="1" parent="KyLAvnzzJZKWlOcafogT-2" source="KyLAvnzzJZKWlOcafogT-94" target="KyLAvnzzJZKWlOcafogT-74">
          <mxGeometry relative="1" as="geometry" />
        </mxCell>
        <mxCell id="KyLAvnzzJZKWlOcafogT-94" value="มีข้อมูลการโหวต" style="rhombus;whiteSpace=wrap;html=1;rounded=1;" vertex="1" parent="KyLAvnzzJZKWlOcafogT-2">
          <mxGeometry x="366" y="1464.7642472216721" width="80" height="83.61809045226131" as="geometry" />
        </mxCell>
        <mxCell id="KyLAvnzzJZKWlOcafogT-95" value="" style="edgeStyle=orthogonalEdgeStyle;rounded=0;orthogonalLoop=1;jettySize=auto;html=1;endArrow=classic;endFill=1;" edge="1" parent="KyLAvnzzJZKWlOcafogT-2" source="KyLAvnzzJZKWlOcafogT-90" target="KyLAvnzzJZKWlOcafogT-94">
          <mxGeometry relative="1" as="geometry" />
        </mxCell>
        <mxCell id="KyLAvnzzJZKWlOcafogT-96" value="ไม่ใช่" style="text;html=1;align=center;verticalAlign=middle;resizable=0;points=[];autosize=1;strokeColor=none;fillColor=none;" vertex="1" parent="KyLAvnzzJZKWlOcafogT-2">
          <mxGeometry x="421.25" y="1564.7917823431426" width="50" height="30" as="geometry" />
        </mxCell>
        <mxCell id="KyLAvnzzJZKWlOcafogT-97" value="ตรวจสอบว่ามีข้อมูลโหวตอีกหรอไม่" style="whiteSpace=wrap;html=1;rounded=1;" vertex="1" parent="KyLAvnzzJZKWlOcafogT-2">
          <mxGeometry x="191.25" y="1564.796501524837" width="120" height="60" as="geometry" />
        </mxCell>
        <mxCell id="KyLAvnzzJZKWlOcafogT-98" value="" style="edgeStyle=orthogonalEdgeStyle;rounded=0;orthogonalLoop=1;jettySize=auto;html=1;endArrow=classic;endFill=1;" edge="1" parent="KyLAvnzzJZKWlOcafogT-2" source="KyLAvnzzJZKWlOcafogT-74" target="KyLAvnzzJZKWlOcafogT-97">
          <mxGeometry relative="1" as="geometry" />
        </mxCell>
        <mxCell id="KyLAvnzzJZKWlOcafogT-99" style="edgeStyle=orthogonalEdgeStyle;rounded=0;orthogonalLoop=1;jettySize=auto;html=1;entryX=0;entryY=0.5;entryDx=0;entryDy=0;endArrow=classic;endFill=1;" edge="1" parent="KyLAvnzzJZKWlOcafogT-2" source="KyLAvnzzJZKWlOcafogT-101" target="KyLAvnzzJZKWlOcafogT-10">
          <mxGeometry relative="1" as="geometry" />
        </mxCell>
        <mxCell id="KyLAvnzzJZKWlOcafogT-100" style="edgeStyle=orthogonalEdgeStyle;rounded=0;orthogonalLoop=1;jettySize=auto;html=1;entryX=0;entryY=0.5;entryDx=0;entryDy=0;endArrow=classic;endFill=1;" edge="1" parent="KyLAvnzzJZKWlOcafogT-2" source="KyLAvnzzJZKWlOcafogT-101" target="KyLAvnzzJZKWlOcafogT-74">
          <mxGeometry relative="1" as="geometry">
            <Array as="points">
              <mxPoint x="171" y="1694.7917823431426" />
              <mxPoint x="171" y="1506.7917823431426" />
            </Array>
          </mxGeometry>
        </mxCell>
        <mxCell id="KyLAvnzzJZKWlOcafogT-101" value="มีข้อมูล" style="rhombus;whiteSpace=wrap;html=1;rounded=1;" vertex="1" parent="KyLAvnzzJZKWlOcafogT-2">
          <mxGeometry x="211.25" y="1654.796501524837" width="80" height="80" as="geometry" />
        </mxCell>
        <mxCell id="KyLAvnzzJZKWlOcafogT-102" value="" style="edgeStyle=orthogonalEdgeStyle;rounded=0;orthogonalLoop=1;jettySize=auto;html=1;endArrow=classic;endFill=1;" edge="1" parent="KyLAvnzzJZKWlOcafogT-2" source="KyLAvnzzJZKWlOcafogT-97" target="KyLAvnzzJZKWlOcafogT-101">
          <mxGeometry relative="1" as="geometry" />
        </mxCell>
        <mxCell id="KyLAvnzzJZKWlOcafogT-103" value="ไม่ใช่" style="text;html=1;align=center;verticalAlign=middle;resizable=0;points=[];autosize=1;strokeColor=none;fillColor=none;" vertex="1" parent="KyLAvnzzJZKWlOcafogT-2">
          <mxGeometry x="275" y="1664.0917823431428" width="50" height="30" as="geometry" />
        </mxCell>
        <mxCell id="KyLAvnzzJZKWlOcafogT-104" value="ใช่" style="text;html=1;align=center;verticalAlign=middle;resizable=0;points=[];autosize=1;strokeColor=none;fillColor=none;" vertex="1" parent="KyLAvnzzJZKWlOcafogT-2">
          <mxGeometry x="175" y="1664.0917823431428" width="40" height="30" as="geometry" />
        </mxCell>
        <mxCell id="KyLAvnzzJZKWlOcafogT-105" value="" style="edgeStyle=orthogonalEdgeStyle;rounded=0;orthogonalLoop=1;jettySize=auto;html=1;" edge="1" parent="KyLAvnzzJZKWlOcafogT-2" source="KyLAvnzzJZKWlOcafogT-106" target="KyLAvnzzJZKWlOcafogT-13">
          <mxGeometry relative="1" as="geometry" />
        </mxCell>
        <mxCell id="KyLAvnzzJZKWlOcafogT-106" value="เริ่มต้น" style="ellipse;whiteSpace=wrap;html=1;" vertex="1" parent="KyLAvnzzJZKWlOcafogT-2">
          <mxGeometry x="160" y="33.801782343142705" width="60" height="46.1965574680733" as="geometry" />
        </mxCell>
      </root>
    </mxGraphModel>
  </diagram>
</mxfile>
